<svg id="music" xmlns="http://www.w3.org/2000/svg" width="75.6" height="75.6" viewBox="0 0 75.6 75.6">

  <defs>
    <style>

    #music:hover {
      cursor: pointer;
    }
      .cls-1 {
        fill: none;
        stroke: #fff;
        stroke-miterlimit: 10;
        stroke-width: 2px;
        transition: all ease 1.5s;
      }
    </style>
  </defs>
  <g id="Layer_2" data-name="Layer 2">
    <g id="circle">
      <circle class="cls-1" cx="37.8" cy="37.8" r="36.8"/>
    </g>
    <g id="music7">
      <path d="M31.64,3.92,33,3.76a.68.68,0,0,1,.73.45l.13.34.54-.07a.5.5,0,0,1,.51.3l.35.87a.48.48,0,0,1-.39.67l-.33,0,.17.46a.7.7,0,0,1-.57.94h0l.13.91L36,8.46l0-.15a.56.56,0,0,1,.48-.61l.31,0A1.18,1.18,0,0,1,37.08,10l-.31,0a.56.56,0,0,1-.61-.48l0-.15-1.69.2.36,2.46,1.63-.2,0-.15a.55.55,0,0,1,.48-.61l.31,0a1.18,1.18,0,0,1,.28,2.35l-.31,0a.56.56,0,0,1-.61-.48l0-.15L35,13l2.34,16.21c1.24,0,6.12.43,8.07,5.27a9.9,9.9,0,0,1,.53,5.06,5.71,5.71,0,0,0,.23,2.68.95.95,0,0,1-.65,1.26A1.78,1.78,0,0,0,44,45.62c.28,2.77,1.29,6,3.32,6.79a1,1,0,0,0,.34.06,1.06,1.06,0,0,1,.72.29.91.91,0,0,1,.26.67,6.78,6.78,0,0,0,1.62,4A8.39,8.39,0,0,1,52,62.71a7.62,7.62,0,0,1-4.77,7.1,21.88,21.88,0,0,1-6.61,1.84l-.23,0a22.18,22.18,0,0,1-6.87-.23,7.62,7.62,0,0,1-6.31-5.76,8.45,8.45,0,0,1,.47-5.51,6.74,6.74,0,0,0,.61-4.32,1,1,0,0,1,.1-.7A1,1,0,0,1,29,54.7a.73.73,0,0,0,.31-.14c1.79-1.24,2-4.62,1.62-7.37a1.78,1.78,0,0,0-2-1.7,1,1,0,0,1-.7-.31,1,1,0,0,1-.23-.76,5.45,5.45,0,0,0-.41-2.65,10,10,0,0,1-.68-5c.75-5.18,5.4-6.72,6.59-7L32.07,14.56l-1.58.19,0,.15a.54.54,0,0,1-.48.61l-.31,0a1.18,1.18,0,0,1-.28-2.35l.31,0a.55.55,0,0,1,.61.48l0,.15,1.6-.19-.23-2.48-1.67.2,0,.16a.53.53,0,0,1-.48.6l-.31,0A1.18,1.18,0,0,1,29,9.79l.31,0a.55.55,0,0,1,.61.48l0,.15,1.68-.2-.19-2.1h0a.7.7,0,0,1-.78-.78l.06-.48-.33,0a.49.49,0,0,1-.54-.56L30,5.37A.47.47,0,0,1,30.45,5L31,4.89l0-.36A.7.7,0,0,1,31.64,3.92ZM55,21.43l.63,1.12a2.16,2.16,0,0,0,1.08.89.48.48,0,0,1,.26.67A203.32,203.32,0,0,0,43.76,59.78c-.89,3.22-1.71,6.62-2.43,10.11l-.14.63a.55.55,0,0,1-.74.4L40,70.76a.56.56,0,0,1-.35-.65l.16-.73s0-.15.09-.4l-1.78-.81a1.19,1.19,0,0,1-.62-1.5l1-2.6.08-.23L54.26,21.48A.39.39,0,0,1,55,21.43Zm-14,43.29A277.7,277.7,0,0,1,55.1,24.58l-1-.86-15,40.34Z"/>
    </g>
  </g>
</svg>
