<svg xmlns="http://www.w3.org/2000/svg" viewBox="0 0 1920 401.48"><defs><style>.cls-1{fill:#ffc200;}.cls-2{fill:#5b5b5b;}.cls-3{font-size:42px;}.cls-3,.cls-4{fill:#282828;}.cls-3,.cls-6,.cls-7{font-family:Ashemore-NorMed, Ashemore;}.cls-5,.cls-6{fill:#fff;}.cls-6{font-size:28.3px;}.cls-7{font-size:40px;fill:#777;}.cls-8{letter-spacing:-0.01em;}</style></defs><g id="Layer_2" data-name="Layer 2"><g id="Layer_1-2" data-name="Layer 1"><rect class="cls-1" width="1920" height="401.48"/><polygon class="cls-2" points="1920 400.85 1920 351.09 1016.85 351.09 960 284.97 903.15 351.09 0 351.09 0 400.85 1920 400.85"/><text class="cls-3" transform="translate(195.63 223.65)">MusiC<tspan x="3.78" y="36.27">Island</tspan></text><path class="cls-4" d="M338.94,245.12c0,.79,0,1.52,0,2.25s-.43,1-1.74,1c-3.53,0-7.06,0-10.58,0-1.24,0-1.87-.23-1.75-1a6.31,6.31,0,0,0,0-.87V194.37h13.86l.37,2.88A58.08,58.08,0,0,1,357,199.37c.1-29.51-41.73-58.5-101.31-58.5s-101.4,29-101.31,58.5a58.51,58.51,0,0,1,17.9-2.13c.11-1,.21-1.91.33-2.93,4.34,0,8.56,0,12.77,0a1.62,1.62,0,0,1,1,.69c.18.29,0,.65,0,1q0,25.32,0,50.63c0,1.75,0,1.75-3,1.75s-6.07,0-9.1,0c-1.5,0-2-.32-2-1.16,0-.69,0-1.39,0-1.94-4.12-.39-8-.55-11.7-1.16-13.91-2.3-23-7.73-27.26-15.72-3.88-7.21-2.21-14.15,4.61-20.62a1.86,1.86,0,0,0,.58-1.51c-3.77-29.82,23.35-56.68,69.73-68.93a167.12,167.12,0,0,1,33.27-5.3c44.27-2.53,80.29,6.5,107.78,27,11.71,8.72,18.76,18.77,22,29.76a44.3,44.3,0,0,1,1.34,17.45,2.24,2.24,0,0,0,.8,1.72c12.64,12,5.83,27.68-15,34.38a63.07,63.07,0,0,1-17.63,2.67Z"/><rect class="cls-5" x="1024.58" y="150.75" width="604.35" height="99.98" rx="12"/><rect class="cls-2" x="1659.81" y="167.28" width="132.58" height="70.73" rx="12"/><text class="cls-6" transform="translate(1681.49 214.23)">Sign In</text><text class="cls-7" transform="translate(1049.75 214.23)"><tspan class="cls-8">E</tspan><tspan x="22.64" y="0">- mail</tspan></text></g></g></svg>