<svg xmlns="http://www.w3.org/2000/svg" viewBox="0 0 1920 401.48"><defs><style>.cls-1{fill:#ffc200;}.cls-2{font-size:40px;}.cls-2,.cls-3,.cls-7,.cls-8{fill:#282828;}.cls-2,.cls-3,.cls-7{font-family:Ashemore-NorMed, Ashemore;}.cls-3{font-size:46px;}.cls-4{letter-spacing:-0.01em;}.cls-5{fill:none;stroke:#5b5b5b;stroke-linecap:round;stroke-linejoin:round;stroke-width:4px;}.cls-6{fill:#5b5b5b;}.cls-7{font-size:56.68px;}</style></defs><g id="Layer_2" data-name="Layer 2"><g id="Layer_1-2" data-name="Layer 1"><rect class="cls-1" width="1920" height="401.48"/><text class="cls-2" transform="translate(1166.74 206.77)">HOME</text><text class="cls-3" transform="translate(1391.86 206.77)">P<tspan class="cls-4" x="27.55" y="0">r</tspan><tspan x="45.54" y="0">oduct</tspan></text><text class="cls-2" transform="translate(1658.01 205.93)">contact</text><line class="cls-5" x1="1395.86" y1="234.27" x2="1560.77" y2="234.27"/><polygon class="cls-6" points="1920 0 1920 49.76 1016.85 49.76 960 115.88 903.15 49.76 0 49.76 0 0 1920 0"/><text class="cls-7" transform="translate(218.09 231.65)">MusiC<tspan x="5.1" y="48.95">Island</tspan></text><path class="cls-8" d="M411.5,260.64c0,1.05,0,2,0,3s-.57,1.41-2.35,1.39c-4.76-.05-9.52,0-14.28,0-1.67,0-2.52-.31-2.36-1.35a6.64,6.64,0,0,0,0-1.18V192.15h18.7l.5,3.88a78.13,78.13,0,0,1,24.11,2.86C436,159.07,379.53,120,299.12,120S162.26,159.1,162.39,198.89A79.19,79.19,0,0,1,186.55,196c.15-1.37.28-2.58.43-4,5.87,0,11.56,0,17.24,0a2.19,2.19,0,0,1,1.41.93c.24.4.07.88.07,1.33v68.33c0,2.36,0,2.36-4,2.36s-8.19-.06-12.28,0c-2,0-2.74-.43-2.65-1.56.08-.93,0-1.87,0-2.62-5.56-.53-10.82-.74-15.79-1.57-18.77-3.1-31-10.42-36.79-21.21-5.24-9.73-3-19.09,6.22-27.83a2.49,2.49,0,0,0,.78-2c-5.08-40.24,31.51-76.49,94.11-93a225.36,225.36,0,0,1,44.9-7.16c59.75-3.41,108.36,8.78,145.46,36.44,15.8,11.78,25.32,25.33,29.63,40.16a60,60,0,0,1,1.81,23.56,3,3,0,0,0,1.08,2.32c17.06,16.25,7.87,37.36-20.26,46.39a84.28,84.28,0,0,1-23.79,3.6C413.37,260.55,412.63,260.59,411.5,260.64Z"/></g></g></svg>