<svg id="music" xmlns="http://www.w3.org/2000/svg" width="75.6" height="75.6" viewBox="0 0 75.6 75.6">
  <defs>
    <style>
      .cls-1 {
        fill: none;
        stroke: #fff;
        stroke-miterlimit: 10;
        stroke-width: 2px;
      }

      .cls-2 {
        fill: #fff;
      }
    </style>
  </defs>
  <g id="Layer_2" data-name="Layer 2">
    <g id="circle">
      <g id="circle-2" data-name="circle">
        <circle class="cls-1" cx="37.8" cy="37.8" r="36.8"/>
      </g>
    </g>
    <g id="black">
      <g id="black-2" data-name="black">
        <path d="M63.4,49.8A28.27,28.27,0,1,1,49.9,12.2,28.16,28.16,0,0,1,63.4,49.8Z"/>
      </g>
    </g>
    <g id="white">
      <g id="white-2" data-name="white">
        <path class="cls-2" d="M36.3,48.3,32.2,64.5a28.19,28.19,0,0,1-6-2,26.18,26.18,0,0,1-5.3-3.3l9.9-13.5a9,9,0,0,0,2.6,1.7A7,7,0,0,0,36.3,48.3Zm8.6-18.4,9.9-13.5a26.18,26.18,0,0,0-5.3-3.3,24.9,24.9,0,0,0-6-2L39.4,27.3a8.6,8.6,0,0,1,3,.9A8.52,8.52,0,0,1,44.9,29.9Z"/>
        <path class="cls-2" d="M46.5,41.9A9.68,9.68,0,1,1,41.9,29,9.69,9.69,0,0,1,46.5,41.9Z"/>
      </g>
    </g>
    <g id="black-center">
      <g id="black-center-2" data-name="black-center">
        <path d="M39.3,38.5a1.66,1.66,0,1,1-.8-2.2A1.68,1.68,0,0,1,39.3,38.5Z"/>
      </g>
    </g>
  </g>
</svg>
