<svg id="music" xmlns="http://www.w3.org/2000/svg" width="75.6" height="75.6" viewBox="0 0 75.6 75.6">
  <defs>
    <style>
      .cls-1 {
        fill: none;
        stroke: #fff;
        stroke-miterlimit: 10;
        stroke-width: 2px;
      }
    </style>
  </defs>
  <g id="Layer_2" data-name="Layer 2">
    <g id="body">
      <path id="body-2" data-name="body" d="M61.59,53.23h.85a.72.72,0,0,1-.43.15A.67.67,0,0,1,61.59,53.23ZM64.88,51V33l-1,.21-.66.14-3.09.7-1.32.3V51Zm-6,0V34.33h0V51Zm0,5.23a1,1,0,0,0,.11.23.47.47,0,0,0,.11.13.88.88,0,0,0,.62.26H64a.88.88,0,0,0,.89-.88V53.23H62.44a.72.72,0,0,1-.43.15.67.67,0,0,1-.42-.15H58.85V56A1.09,1.09,0,0,0,58.89,56.26Zm0,0a1.09,1.09,0,0,1,0-.26V53.23h0V56A.75.75,0,0,0,58.89,56.26ZM57,27.49a.64.64,0,0,0-.21-.32A1,1,0,0,1,57,27.49ZM51,56.37a1.13,1.13,0,0,0,.11.22l.11.12a.89.89,0,0,0,.61.25h4.27a.86.86,0,0,0,.88-.84V53.23H51v2.89A1,1,0,0,0,51,56.37ZM57,51V34.74l-1,.21-.67.15-3.08.69-1.32.3V51Zm-6,0V36.09h0V51Zm0,5.34a1,1,0,0,1,0-.25V53.23h0v2.89A.69.69,0,0,0,51,56.37ZM48.51,51V36.65l-1,.21-.66.15-3.09.7L42.49,38V51Zm-6,0V38h0V51Zm.15,5.67.1.11a1,1,0,0,0,.62.21h4.27a.82.82,0,0,0,.88-.74V53.23h-6v3.05A.63.63,0,0,0,42.64,56.7ZM40.51,51V38.45l-1,.21-.66.15-3.09.7-1.31.29V51Zm-6-13.49,1.31-.29,3.09-.7.66-.15,1-.22v-3a.46.46,0,0,0-.06-.23.53.53,0,0,0-.06-.1l-.07-.09a1,1,0,0,0-.54-.26H35.36a1,1,0,0,0-.72.3.59.59,0,0,0-.16.39v4.34Zm0,13.49V39.8h0V51ZM26.34,39.37l1.31-.29,3.09-.7.67-.15.95-.21V35.13a.37.37,0,0,0-.06-.21.55.55,0,0,0-.13-.18,1.18,1.18,0,0,0-.18-.13l-.12,0-.12,0a1.2,1.2,0,0,0-.28,0H27.21a1,1,0,0,0-.72.27.49.49,0,0,0-.15.36v4.24Zm8.3,17.43a1,1,0,0,0,.72.3h4.27a.8.8,0,0,0,.88-.68V53.23h-6v3.19A.55.55,0,0,0,34.64,56.8Zm-8.15.09a1,1,0,0,0,.72.28h4.27c.49,0,.88-.28.88-.63V53.23h-6v3.31A.51.51,0,0,0,26.49,56.89ZM32.36,51V40.28l-.95.21-.67.15-3.09.7-1.31.29V51Zm-6,0v-9.4h0V51Zm.15,5.86a.51.51,0,0,1-.15-.35V53.23h0v3.31A.45.45,0,0,0,26.49,56.89ZM8.67,43.34l1.81-.41h0V39.76a.32.32,0,0,1,0-.14l.05-.07a.17.17,0,0,1,.06-.06,1.14,1.14,0,0,1,.73-.23h4.26a2,2,0,0,1,.27,0l.13,0a1,1,0,0,1,.3.14s.06,0,.08.07l.05.07a.25.25,0,0,1,.06.16v1.82l1.83-.41h0V37.62a.46.46,0,0,1,.15-.31,1.06,1.06,0,0,1,.72-.25h4.44l.14,0a1,1,0,0,1,.38.18.6.6,0,0,1,.08.08.56.56,0,0,1,.05.08.3.3,0,0,1,.06.18v2.2l2-.45h0l1.31-.29,3.09-.7.67-.15.95-.21,2.12-.48h0l1.31-.29,3.09-.7.66-.15,1-.22,2-.43h0l1.31-.29,3.09-.7.66-.15,1-.21L51,33.83h0l1.32-.3,3.08-.69.67-.15,1-.22,1.83-.4h0l1.32-.3,3.09-.69.66-.15,1-.21,1.57-.36A1,1,0,0,1,67.6,31l.11.43A.89.89,0,0,1,67,32.5L64.88,33l-1,.21-.66.14-3.09.7-1.32.3h0L57,34.74l-1,.21-.67.15-3.08.69-1.32.3h0l-2.49.56-1,.21-.66.15-3.09.7L42.49,38h0l-2,.44-1,.21-.66.15-3.09.7-1.31.29h0l-2.12.48-.95.21-.67.15-3.09.7-1.31.29h0l-2,.44v9H66.43a.91.91,0,0,1,.93.88v.43a.91.91,0,0,1-.93.89H24.36v3.45c0,.31-.4.57-.88.57H19.21a1.06,1.06,0,0,1-.72-.25.46.46,0,0,1-.15-.32V53.23H16.51v3.52c0,.27-.4.5-.89.5H11.36a1.14,1.14,0,0,1-.73-.23l-.08-.08a.35.35,0,0,1-.06-.19V53.23H8.88a.92.92,0,0,1-.94-.89v-.43A.91.91,0,0,1,8.88,51h1.61V45.2h0l-1.27.28a.94.94,0,0,1-1.15-.64L8,44.41A.91.91,0,0,1,8.67,43.34ZM16.51,51h1.83v-7.6h0l-1.83.41Zm42.34-19,1.32-.3,3.09-.69.66-.15,1-.21V26.05a.79.79,0,0,0-.19-.52l-.09-.1a.83.83,0,0,0-.21-.16l-.13-.05h0l-.1,0-.15,0H59.73a.88.88,0,0,0-.62.26.69.69,0,0,0-.11.13,1,1,0,0,0-.11.23.75.75,0,0,0,0,.26v6ZM51,33.83l1.32-.3,3.08-.69.67-.15,1-.22v-4.7a.67.67,0,0,0-.06-.28,1,1,0,0,0-.21-.32l-.1-.08L56.53,27a.43.43,0,0,0-.12-.05h0l-.1,0H51.87a.88.88,0,0,0-.61.24.63.63,0,0,0-.11.12.76.76,0,0,0-.11.22h0a.69.69,0,0,0,0,.25v6.06Zm-8.51,1.91,1.31-.29,3.09-.7.66-.15,1-.21v-3.7a.5.5,0,0,0-.06-.24.75.75,0,0,0-.21-.29l-.11-.07A.39.39,0,0,0,48,30L47.89,30l-.13,0h-4.4a1,1,0,0,0-.62.21.7.7,0,0,0-.26.53v5.06ZM18.34,41.17V37.62a.46.46,0,0,1,.15-.31.42.42,0,0,0-.15.31v3.55Zm0,9.86v-7.6h0V51Zm.15,6a.46.46,0,0,1-.15-.32V53.23h0v3.45A.42.42,0,0,0,18.49,57Zm-8-14.07V39.76a.32.32,0,0,1,0-.14.23.23,0,0,0,0,.14v3.17Zm0,8.1V45.2h0V51Zm.06,5.91a.35.35,0,0,1-.06-.19V53.23h0v3.52A.26.26,0,0,0,10.55,56.94ZM62,53.38a.72.72,0,0,0,.43-.15h-.85A.67.67,0,0,0,62,53.38Z"/>
    </g>
    <g id="Layer_3" data-name="Layer 3">
      <path id="_2" data-name="2" d="M16.51,18.38a2.89,2.89,0,0,1,5.73-.54H38.08l3.5,1.08H22.24a2.89,2.89,0,0,1-5.73-.54Zm28.74.54h9.3V17.84H41.74ZM24.26,16a2.9,2.9,0,0,0,3.4-1.4l10.42,3.23,3.5,1.08,17,5.26.32-1-13.6-4.22-3.51-1.08L28,13.57A2.89,2.89,0,1,0,24.26,16Z"/>
    </g>
    <g id="circle">
      <circle class="cls-1" cx="37.8" cy="37.8" r="36.8"/>
    </g>
  </g>
</svg>
