<svg id="music" xmlns="http://www.w3.org/2000/svg" width="75.6" height="75.6" viewBox="0 0 75.6 75.6">
  <defs>
    <style>
      .cls-1 {
        fill: none;
        stroke: #fff;
        stroke-miterlimit: 10;
        stroke-width: 2px;
      }
    </style>
  </defs>
  <g id="Layer_2" data-name="Layer 2">
    <g id="circle">
      <circle class="cls-1" cx="37.8" cy="37.8" r="36.8"/>
    </g>
    <g id="music9">
      <path d="M67.41,57.13l-.72-1.25,0,0a.24.24,0,0,0-.24-.12l-2-6.08A6.18,6.18,0,0,0,63.59,48l-2.36-3.29v-7a.35.35,0,0,0,.34-.34.36.36,0,0,0-.35-.36h-.11V32.37h0a.3.3,0,0,0,.3-.3.28.28,0,0,0-.16-.26,1,1,0,0,0,.59-.48c2.42-.06,4.23-.32,4.23-.63,0-.15-.39-.28-1.06-.39.67-.11,1.06-.24,1.06-.39,0-.31-1.81-.57-4.23-.63a.93.93,0,0,0-.82-.51h-.18v-.25a.31.31,0,0,0,.19-.21c.06-.17,0-.36-.19-.36s-.09.05-.11.1-.06,0-.08,0,0-.1-.11-.1-.24.18-.19.36a.32.32,0,0,0,.2.21v.25h-.16a.92.92,0,0,0-.82.51c-2.42.06-4.24.32-4.24.63,0,.15.4.28,1.07.39-.67.11-1.07.24-1.07.39,0,.31,1.82.57,4.24.63a1,1,0,0,0,.58.48.3.3,0,0,0-.16.26.3.3,0,0,0,.31.3h0V37h-.1a.36.36,0,0,0-.35.36.35.35,0,0,0,.33.34v1.17a.6.6,0,0,0-.24,0H47.29a.7.7,0,0,0-.59.33h0a.41.41,0,0,0-.05.09s0,0,0,0,0,.05,0,.07v0a12.06,12.06,0,0,0-4.27-2.5V36a.35.35,0,0,0,0-.7V33.46a.35.35,0,0,0,0-.7v-1a.7.7,0,0,0,.6-.7.69.69,0,0,0-.15-.42l.79-.79.12-.12h0c.12,2,.28,4.77.28,4.77.06,1.06,2.52,1.79,5.49,1.62s5.33-1.17,5.27-2.23c0-.2-.23-3.94-.33-5.79a1,1,0,0,0,.2-.65v-.54c-.09-1.58-4.11-1.81-5.77-1.72s-5.68.75-5.55,2.52v.42a.84.84,0,0,0,.19.46L41.9,30.18l-.18.22-.22-.16a.55.55,0,0,0-.11-.51c-.21-.27-.57-.34-.74-.09-.07.09,0,.19,0,.27a.08.08,0,0,1-.08.12c-.1,0-.21,0-.28.06s0,.56.34.66a.54.54,0,0,0,.52-.07l.28.19a1.84,1.84,0,0,0-.11.62v1.27a.35.35,0,0,0,0,.7v1.88a.35.35,0,0,0,0,.7v.56a8.87,8.87,0,0,0-1-.21.56.56,0,0,0-.41-.3.39.39,0,0,0-.39-.36H37.4a.39.39,0,0,0-.38.36.54.54,0,0,0-.41.3,9.46,9.46,0,0,0-1.06.21V36a.35.35,0,0,0,0-.7V33.46a.35.35,0,0,0,0-.7V31.49a1.84,1.84,0,0,0-.11-.62l.28-.19a.54.54,0,0,0,.52.07c.32-.1.52-.41.34-.66S36.4,30,36.31,30a.08.08,0,0,1-.08-.12.25.25,0,0,0,0-.27c-.18-.25-.54-.18-.74.09a.55.55,0,0,0-.11.51l-.23.16a1.24,1.24,0,0,0-.18-.22l-1.56-1.56a.83.83,0,0,0,.18-.46v-.42c.14-1.77-3.83-2.42-5.54-2.52s-5.69.14-5.78,1.72v.54a1,1,0,0,0,.21.65c-.09,1.49-.25,4.19-.31,5.3h-3V22.06h0a.3.3,0,0,0,.3-.31.29.29,0,0,0-.3-.3h0a.71.71,0,0,0-.39-1.31.69.69,0,0,0-.58.3c-.13-.05-.27-.09-.39-.15s-.13-.51-.11-.74,0-.35,0-.53c4.07.38,7.47-.1,7.65-1.1s-3-2.16-7.2-2.58l0-.32a.55.55,0,0,0,.38-.35c.12-.31,0-.66-.3-.69-.12,0-.17.09-.22.18a.08.08,0,0,1-.14,0c0-.09-.07-.2-.19-.2-.3,0-.47.3-.39.63a.56.56,0,0,0,.33.41l0,.3c-4-.33-7.19.15-7.37,1.12s3,2.17,7.18,2.59l-.09.55c-.06.38-.19.81.2,1.06a2.19,2.19,0,0,0,.49.23h0a.71.71,0,0,0,.33.6h0a.29.29,0,0,0-.3.3.3.3,0,0,0,.3.31h0V33.43h-3a.7.7,0,0,0-.7.71v.52a.7.7,0,0,0,.6.69.51.51,0,0,0,.3.46v9.92a.51.51,0,0,0-.3.46.7.7,0,0,0-.6.69v.52a.7.7,0,0,0,.7.71H16a5.85,5.85,0,0,0-.77,1.54l-2,6.08a.24.24,0,0,0-.24.12l0,0-.73,1.25a.25.25,0,0,0,.13.35l1.29.48a.25.25,0,0,0,.32-.19l.27-1.45a.26.26,0,0,0-.11-.26l2-6.11a4.92,4.92,0,0,1,.69-1.35l.35-.49h.4l.82,2.3v.46a.24.24,0,0,0,.24.24h.49a.24.24,0,0,0,.24-.24v-.46l.82-2.3h.4l.35.49.18.27-.18.18h0l-.14.14a2.94,2.94,0,0,0-.59.83l-1.33,2.87a.13.13,0,0,0-.14.07l0,0-.54.8a.16.16,0,0,0,.06.24l.84.38a.17.17,0,0,0,.23-.1l.25-1a.14.14,0,0,0,0-.14l1.33-2.87a2.17,2.17,0,0,1,.43-.59h0l0,0,.16-.16c.06.14.11.27.16.41l2,6.11a.29.29,0,0,0-.12.26l.28,1.45a.25.25,0,0,0,.32.19l1.29-.48a.24.24,0,0,0,.12-.35l-.72-1.25,0,0a.24.24,0,0,0-.24-.12l-2-6.08a6,6,0,0,0-.34-.83l.17-.18h0l.37-.37,1.43,1.43a2.14,2.14,0,0,1,.44.62l1.34,2.87a.14.14,0,0,0,0,.14l.25,1a.17.17,0,0,0,.23.1l.68-.31L28,55.7a.4.4,0,0,0,.51.16.53.53,0,0,0,.47.2,11.76,11.76,0,0,0,1,1.11l-.39,0a1.19,1.19,0,0,0-1.2.76L26.77,62l-.07.17h0a.28.28,0,0,0-.34.1l0,0-.89,1.36a.28.28,0,0,0,.12.41l1.43.62a.29.29,0,0,0,.38-.19l.39-1.63a.27.27,0,0,0-.15-.32l1.69-4.32a.23.23,0,0,1,.24-.15l1.68.11a12.16,12.16,0,0,0,5.41,2.27.54.54,0,0,0,.41.29.39.39,0,0,0,.38.36h2.11a.4.4,0,0,0,.39-.36.54.54,0,0,0,.41-.29,12.12,12.12,0,0,0,5.4-2.27l1.69-.11a.24.24,0,0,1,.24.15l1.69,4.32a.29.29,0,0,0-.16.32l.4,1.63a.29.29,0,0,0,.38.19l1.42-.62a.28.28,0,0,0,.12-.41l-.89-1.36,0,0a.28.28,0,0,0-.34-.1h0L50.15,62l-1.61-4.12a1.21,1.21,0,0,0-1.21-.76l-.39,0a13.41,13.41,0,0,0,1-1.11.54.54,0,0,0,.47-.2.39.39,0,0,0,.5-.16l1-1.83a.38.38,0,0,0-.11-.51.54.54,0,0,0,0-.51,12.28,12.28,0,0,0,.57-1.93h2.4L51.72,52a2.94,2.94,0,0,0-.59.83L49.8,55.68a.15.15,0,0,0-.14.07l0,0-.54.8a.16.16,0,0,0,.06.24l.84.38a.16.16,0,0,0,.23-.1l.25-1a.16.16,0,0,0,0-.15l1.33-2.86a2.62,2.62,0,0,1,.45-.63l1.43-1.43,1.43,1.43a2.62,2.62,0,0,1,.45.63l.09.19h0l.14.32-.69,2.1a.24.24,0,0,0-.24.12l0,0-.72,1.25a.24.24,0,0,0,.13.35l1.29.48a.25.25,0,0,0,.32-.19l.27-1.45a.25.25,0,0,0-.12-.26l.39-1.15.5,1.07a.16.16,0,0,0,0,.15l.25,1a.16.16,0,0,0,.23.1l.84-.38a.16.16,0,0,0,.06-.24l-.54-.8,0,0a.15.15,0,0,0-.14-.07l-.67-1.46h0l-.15-.32,1-3H60a.64.64,0,0,0,.24-.05.24.24,0,0,0,.24.24H61a.24.24,0,0,0,.24-.24v-.46l1-2.67.62.86A5.22,5.22,0,0,1,63.5,50l2,6.11a.25.25,0,0,0-.12.26l.28,1.45A.24.24,0,0,0,66,58l1.29-.48A.24.24,0,0,0,67.41,57.13ZM56.1,52.64a3.1,3.1,0,0,0-.5-.66l-1.07-1.06h2.14Zm4.17-3.32h0l-.36-1V46.92l.37-.52Zm0-8.89v4.31l-.37.52V40.78a.49.49,0,0,0,.26-.32h0l.08,0ZM21.86,48.11l-.07.07-.05-.07ZM37.4,36h2.11a.13.13,0,0,1,.14.1.55.55,0,0,0-.38.2q-.41,0-.81,0t-.81,0a.57.57,0,0,0-.39-.2A.15.15,0,0,1,37.4,36Zm-7.71,4V36.1c1.88-.2,3.21-.79,3.26-1.57l0-.41h0v-.23h0l.07-1.16h0v-.2h0c0-.79.1-1.71.15-2.52h0v-.25h0l.13.12.78.79a.68.68,0,0,0-.14.42.7.7,0,0,0,.6.7v1a.35.35,0,0,0,0,.7v1.88a.35.35,0,0,0,0,.7v.84A12.17,12.17,0,0,0,29.69,40ZM17.93,48.11h.44v1.23Zm1.41,1.23V48.11h.44Zm5.9.68a2.94,2.94,0,0,0-.59-.83l-1.09-1.08h2.72c0,.11,0,.22,0,.33a12.21,12.21,0,0,0,.83,4.41.58.58,0,0,0-.06.51l0,0-.24-.34h0l0-.07,0,0a.13.13,0,0,0-.14-.07Zm3,5.56L27.27,54a.15.15,0,0,0,0-.19l-.12-.19h0a.53.53,0,0,0,.36.23,12.26,12.26,0,0,0,.81,1.41.54.54,0,0,0,0,.43A.17.17,0,0,1,28.19,55.58ZM39.51,60.9H37.4a.16.16,0,0,1-.14-.11.56.56,0,0,0,.39-.19c.26,0,.53,0,.81,0l.81,0a.54.54,0,0,0,.38.19A.14.14,0,0,1,39.51,60.9Zm10.27-7.15-1.06,1.83a.15.15,0,0,1-.16.07.54.54,0,0,0,0-.43,12.26,12.26,0,0,0,.81-1.41.49.49,0,0,0,.36-.23A.14.14,0,0,1,49.78,53.75Zm11.45-4.41V46.4l.7,1Z"/>
    </g>
  </g>
</svg>
