<svg id=music xmlns="http://www.w3.org/2000/svg" width="75.6" height="75.6" viewBox="0 0 75.6 75.6">
  <defs>
    <style>
      .cls-1 {
        fill: none;
        stroke: #fff;
        stroke-miterlimit: 10;
        stroke-width: 2px;
      }
    </style>
  </defs>
  <g id="Layer_2" data-name="Layer 2">
    <g id="circle">
      <circle class="cls-1" cx="37.8" cy="37.8" r="36.8"/>
    </g>
    <g id="sol">
      <path d="M50.45,21.25a4.64,4.64,0,0,0-3.18-2.39,4.21,4.21,0,0,0-2.81.46l-1.2-1.82A18.71,18.71,0,0,0,42,15.86l.12-.78a14.35,14.35,0,0,0,.23-3.7A6.59,6.59,0,0,0,39.65,6.6,2,2,0,0,0,38,6.32a1.64,1.64,0,0,0-1,1.41,6.76,6.76,0,0,0,.57,3.16,13.84,13.84,0,0,0,2.06,3.6c.43.58.92,1.11,1.39,1.66a42.71,42.71,0,0,0-.64,6,8.3,8.3,0,0,0,.84,4.05,3.91,3.91,0,0,0,3.15,1.94A6.39,6.39,0,0,0,48,27.46a14.49,14.49,0,0,1,1,3,4,4,0,0,1-1.79,4.33,2.56,2.56,0,0,1-1.61.23,3.06,3.06,0,0,1-1.85-1,2,2,0,0,1-.35-1.14A1.71,1.71,0,1,0,44,30.12a1.67,1.67,0,0,0-.77.58,3.18,3.18,0,0,0-.14,4,4.06,4.06,0,0,0,2.75,1.22,3.49,3.49,0,0,0,2.42-.82,5.06,5.06,0,0,0,1.62-4.69A14.79,14.79,0,0,0,48.74,27a5.21,5.21,0,0,0,.8-.69A4.36,4.36,0,0,0,50.45,21.25ZM40.9,14.62A15.8,15.8,0,0,1,38.61,11a6.42,6.42,0,0,1-.7-3.24c.07-.49.31-.72.76-.63a2.79,2.79,0,0,1,1.54,1.21,6.71,6.71,0,0,1,1.2,4.5c0,.7-.13,1.39-.22,2.09C41.09,14.85,41,14.74,40.9,14.62ZM43.51,27c-2.67-1-2.31-4.91-2.09-7.14.09-.94.23-1.88.37-2.82.2.25.39.5.57.77q.69,1,1.35,2l-.06.06a3.07,3.07,0,0,0-.71,3.1c.25,1,1.09,1.9,2.17,1.42.53-.23.22-1.09-.32-.85s-.93-.55-1-1a2.15,2.15,0,0,1,.46-1.9c1.08,1.71,2.09,3.46,3,5.27l.36.72A5.27,5.27,0,0,1,43.51,27Zm4.9-.91-.06,0-.12-.25a62.92,62.92,0,0,0-3.29-5.82,3.59,3.59,0,0,1,2-.34,3.64,3.64,0,0,1,2.5,1.54C50.59,22.88,49.83,24.93,48.41,26.1Zm1.37,24.33a6,6,0,0,0-4.1-3.08,5.48,5.48,0,0,0-3.62.6c-.5-.78-1-1.56-1.54-2.34a21.5,21.5,0,0,0-1.67-2.11l.15-1a18.11,18.11,0,0,0,.3-4.76c-.28-2.3-1.38-4.9-3.42-6.16a2.55,2.55,0,0,0-2.17-.36A2.11,2.11,0,0,0,32.46,33a8.81,8.81,0,0,0,.73,4.08,18.09,18.09,0,0,0,2.66,4.63c.56.75,1.18,1.44,1.79,2.13a53.92,53.92,0,0,0-.82,7.71,10.66,10.66,0,0,0,1.07,5.22A5.06,5.06,0,0,0,42,59.28a8.33,8.33,0,0,0,4.62-.85,18.32,18.32,0,0,1,1.3,3.82c.42,2-.34,4.57-2.29,5.58a3.4,3.4,0,0,1-2.08.3,3.92,3.92,0,0,1-2.38-1.24,2.51,2.51,0,0,1-.45-1.46,2.2,2.2,0,1,0,.84-3.57,2.12,2.12,0,0,0-1,.74,4.09,4.09,0,0,0-.19,5.18,5.3,5.3,0,0,0,3.54,1.58A4.55,4.55,0,0,0,47,68.29a6.5,6.5,0,0,0,2.08-6,19,19,0,0,0-1.5-4.43,7.92,7.92,0,0,0,1-.89A5.62,5.62,0,0,0,49.78,50.43ZM37.48,41.9a20.27,20.27,0,0,1-2.94-4.61,8.1,8.1,0,0,1-.9-4.17c.09-.64.4-.92,1-.82a3.6,3.6,0,0,1,2,1.56,8.58,8.58,0,0,1,1.55,5.79c-.06.91-.16,1.8-.28,2.7Zm3.37,16c-3.45-1.25-3-6.32-2.7-9.19.12-1.22.29-2.43.47-3.64.26.32.51.65.75,1,.59.86,1.17,1.74,1.74,2.62l-.09.08a4,4,0,0,0-.91,4c.32,1.26,1.4,2.44,2.79,1.84.69-.31.28-1.41-.41-1.11s-1.19-.7-1.32-1.34a2.78,2.78,0,0,1,.59-2.44c1.39,2.2,2.69,4.46,3.86,6.78.16.31.31.62.46.94A6.78,6.78,0,0,1,40.85,57.85Zm6.31-1.18-.08.07c-.06-.11-.11-.22-.16-.33a79,79,0,0,0-4.24-7.49,4.59,4.59,0,0,1,2.51-.44,4.64,4.64,0,0,1,3.23,2C50,52.53,49,55.17,47.16,56.67ZM29.32,36.39a4,4,0,0,0-.8-3.29,3.58,3.58,0,0,0-2.1-1.21c.07-.62.13-1.23.19-1.85a15.07,15.07,0,0,0,0-1.78l.5-.45a12.09,12.09,0,0,0,2.15-2.31,5.58,5.58,0,0,0,.83-4.58,1.75,1.75,0,0,0-1-1.1,1.42,1.42,0,0,0-1.4.41,5.88,5.88,0,0,0-1.33,2.39,11.8,11.8,0,0,0-.58,3.48c0,.62,0,1.23,0,1.84a34.46,34.46,0,0,0-3.65,3.6,7,7,0,0,0-1.64,3.12,3.34,3.34,0,0,0,1,3,5.5,5.5,0,0,0,2.72,1.51,12.32,12.32,0,0,1-.93,2.5,3.42,3.42,0,0,1-3.52,1.88,2.16,2.16,0,0,1-1.18-.71,2.59,2.59,0,0,1-.7-1.63,1.7,1.7,0,0,1,.38-.94,1.45,1.45,0,0,0,1,1.28,1.45,1.45,0,1,0,.95-2.75,1.44,1.44,0,0,0-.82,0,2.72,2.72,0,0,0-2.27,2.57,3.46,3.46,0,0,0,1.16,2.29,2.94,2.94,0,0,0,2,.76A4.27,4.27,0,0,0,24,42.14a12.36,12.36,0,0,0,1.09-2.9,5.41,5.41,0,0,0,.9,0A3.71,3.71,0,0,0,29.32,36.39Zm-2.71-9.52A13.05,13.05,0,0,1,27,23.29a5.42,5.42,0,0,1,1.28-2.51c.32-.29.6-.31.85,0a2.51,2.51,0,0,1,.36,1.63A5.73,5.73,0,0,1,27.89,26c-.41.44-.84.85-1.28,1.26Zm-5,9.57c-1.24-2.09,1.13-4.48,2.47-5.83.57-.57,1.17-1.12,1.77-1.66,0,.27,0,.54,0,.82q-.09,1-.21,2.07h-.08a2.63,2.63,0,0,0-2.14,1.66c-.36.78-.3,1.84.66,2.11.48.13.74-.6.25-.74S24,34,24.22,33.64a1.85,1.85,0,0,1,1.32-1c-.21,1.71-.49,3.41-.86,5.09-.05.22-.11.45-.16.67A4.47,4.47,0,0,1,21.65,36.44Zm3.71,2H25.3a1.55,1.55,0,0,1,.05-.23,53.06,53.06,0,0,0,1-5.61,3.17,3.17,0,0,1,1.47.83,3.09,3.09,0,0,1,.81,2.36A3,3,0,0,1,25.36,38.48Z"/>
    </g>
  </g>
</svg>
