<?xml version="1.0" encoding="utf-8"?>
<!-- Generator: Adobe Illustrator 26.0.2, SVG Export Plug-In . SVG Version: 6.00 Build 0)  -->
<svg version="1.1" xmlns="http://www.w3.org/2000/svg" xmlns:xlink="http://www.w3.org/1999/xlink" x="0px" y="0px"
	 viewBox="0 0 75.6 75.6" style="enable-background:new 0 0 75.6 75.6;" xml:space="preserve">
<style type="text/css">
	.st0{fill:none;stroke:#FFFFFF;stroke-width:2;stroke-miterlimit:10;}
</style>
<g id="circle">
	<circle class="st0" cx="37.8" cy="37.8" r="36.8"/>
</g>
<g id="sol">
	<path d="M50.4,21.2c-0.6-1.2-1.8-2.1-3.2-2.4c-1-0.2-2,0-2.8,0.5c-0.4-0.6-0.8-1.2-1.2-1.8c-0.4-0.6-0.8-1.1-1.3-1.6
		c0-0.3,0.1-0.5,0.1-0.8c0.2-1.2,0.4-2.5,0.2-3.7c-0.2-1.8-1.1-3.8-2.7-4.8c-0.5-0.3-1.1-0.5-1.7-0.3c-0.6,0.2-0.9,0.8-1,1.4
		c-0.1,1,0.2,2.2,0.6,3.2c0.5,1.3,1.2,2.5,2.1,3.6c0.4,0.6,0.9,1.1,1.4,1.7c-0.3,2-0.6,4-0.6,6c0,1.4,0.2,2.8,0.8,4.1
		c0.6,1.2,1.9,1.8,3.2,1.9c1.3,0.1,2.5-0.1,3.6-0.7c0.4,1,0.8,2,1,3c0.3,1.6-0.3,3.6-1.8,4.3c-0.5,0.3-1.1,0.3-1.6,0.2
		c-0.6-0.1-1.4-0.4-1.8-1c-0.2-0.3-0.3-0.7-0.4-1.1c0.5,0.5,1.2,0.7,1.8,0.4c0.9-0.3,1.3-1.3,1-2.2c-0.3-0.9-1.3-1.3-2.2-1
		c-0.3,0.1-0.6,0.3-0.8,0.6c-1,1-1.1,2.9-0.1,4c0.6,0.7,1.8,1.2,2.8,1.2c0.9,0,1.7-0.3,2.4-0.8c1.3-1.1,1.9-3,1.6-4.7
		c-0.2-1.2-0.7-2.3-1.2-3.4c0.3-0.2,0.6-0.4,0.8-0.7C50.8,25,51.3,22.9,50.4,21.2z M40.9,14.6c-0.9-1.1-1.7-2.3-2.3-3.6
		c-0.4-1-0.9-2.2-0.7-3.2c0.1-0.5,0.3-0.7,0.8-0.6c0.6,0.1,1.2,0.7,1.5,1.2c1,1.3,1.3,2.9,1.2,4.5c0,0.7-0.1,1.4-0.2,2.1
		C41.1,14.9,41,14.7,40.9,14.6z M43.5,27c-2.7-1-2.3-4.9-2.1-7.1c0.1-0.9,0.2-1.9,0.4-2.8c0.2,0.3,0.4,0.5,0.6,0.8
		c0.5,0.7,0.9,1.4,1.4,2c0,0,0,0-0.1,0.1c-0.9,0.8-1,2-0.7,3.1c0.2,1,1.1,1.9,2.2,1.4c0.5-0.2,0.2-1.1-0.3-0.9c-0.6,0.3-0.9-0.5-1-1
		c-0.1-0.7,0-1.4,0.5-1.9c1.1,1.7,2.1,3.5,3,5.3c0.1,0.2,0.2,0.5,0.4,0.7C46.3,27.3,44.8,27.5,43.5,27z M48.4,26.1
		C48.4,26.1,48.4,26.1,48.4,26.1c-0.1,0-0.1-0.1-0.2-0.2c-1-2-2.1-3.9-3.3-5.8c0.6-0.3,1.3-0.4,1.9-0.3c1,0.1,1.9,0.7,2.5,1.5
		C50.6,22.9,49.8,24.9,48.4,26.1z M49.8,50.4c-0.8-1.6-2.4-2.8-4.1-3.1c-1.2-0.2-2.5,0-3.6,0.6c-0.5-0.8-1-1.6-1.5-2.3
		c-0.5-0.8-1.1-1.4-1.7-2.1c0-0.3,0.1-0.7,0.1-1c0.2-1.6,0.5-3.2,0.3-4.8c-0.3-2.3-1.4-4.9-3.4-6.2c-0.7-0.4-1.4-0.6-2.2-0.4
		c-0.8,0.3-1.1,1.1-1.2,1.8c-0.2,1.4,0.3,2.8,0.7,4.1c0.6,1.7,1.6,3.2,2.7,4.6c0.6,0.7,1.2,1.4,1.8,2.1c-0.4,2.6-0.8,5.1-0.8,7.7
		c0,1.8,0.2,3.6,1.1,5.2c0.8,1.5,2.4,2.3,4.1,2.5c1.6,0.2,3.2-0.1,4.6-0.9c0.6,1.2,1,2.5,1.3,3.8c0.4,2-0.3,4.6-2.3,5.6
		c-0.6,0.3-1.4,0.4-2.1,0.3c-0.8-0.1-1.9-0.6-2.4-1.2c-0.3-0.4-0.4-0.9-0.5-1.5c0.6,0.6,1.5,0.9,2.4,0.6c1.1-0.4,1.7-1.7,1.3-2.8
		c-0.4-1.1-1.7-1.7-2.8-1.3c-0.4,0.2-0.7,0.4-1,0.7c-1.3,1.3-1.4,3.8-0.2,5.2c0.8,1,2.3,1.5,3.5,1.6c1.1,0.1,2.2-0.3,3.1-1.1
		c1.7-1.4,2.5-3.9,2.1-6c-0.3-1.5-0.8-3-1.5-4.4c0.4-0.3,0.7-0.6,1-0.9C50.3,55.2,50.9,52.6,49.8,50.4z M37.5,41.9
		c-1.2-1.4-2.2-2.9-2.9-4.6c-0.5-1.2-1.1-2.8-0.9-4.2c0.1-0.6,0.4-0.9,1-0.8c0.8,0.2,1.5,0.9,2,1.6c1.2,1.7,1.7,3.8,1.5,5.8
		c-0.1,0.9-0.2,1.8-0.3,2.7C37.7,42.2,37.6,42,37.5,41.9z M40.8,57.8c-3.4-1.3-3-6.3-2.7-9.2c0.1-1.2,0.3-2.4,0.5-3.6
		c0.3,0.3,0.5,0.7,0.7,1c0.6,0.9,1.2,1.7,1.7,2.6c0,0-0.1,0.1-0.1,0.1c-1.1,1.1-1.3,2.6-0.9,4c0.3,1.3,1.4,2.4,2.8,1.8
		c0.7-0.3,0.3-1.4-0.4-1.1c-0.8,0.4-1.2-0.7-1.3-1.3c-0.2-0.9,0-1.7,0.6-2.4c1.4,2.2,2.7,4.5,3.9,6.8c0.2,0.3,0.3,0.6,0.5,0.9
		C44.5,58.2,42.5,58.4,40.8,57.8z M47.2,56.7C47.1,56.7,47.1,56.7,47.2,56.7c-0.1,0-0.2-0.2-0.2-0.3c-1.3-2.6-2.7-5.1-4.2-7.5
		c0.8-0.4,1.7-0.5,2.5-0.4c1.3,0.1,2.4,0.9,3.2,2C50,52.5,49,55.2,47.2,56.7z M29.3,36.4c0.2-1.1,0-2.4-0.8-3.3
		c-0.5-0.6-1.3-1.1-2.1-1.2c0.1-0.6,0.1-1.2,0.2-1.8c0.1-0.6,0-1.2,0-1.8c0.2-0.2,0.3-0.3,0.5-0.5c0.8-0.7,1.6-1.4,2.2-2.3
		c0.8-1.3,1.3-3.1,0.8-4.6c-0.2-0.5-0.5-0.9-1-1.1c-0.5-0.2-1,0.1-1.4,0.4c-0.7,0.6-1,1.6-1.3,2.4c-0.4,1.1-0.5,2.3-0.6,3.5
		c0,0.6,0,1.2,0,1.8c-1.3,1.1-2.6,2.3-3.7,3.6c-0.8,0.9-1.4,1.9-1.6,3.1c-0.2,1.1,0.2,2.2,1,3c0.8,0.8,1.7,1.3,2.7,1.5
		c-0.2,0.9-0.5,1.7-0.9,2.5c-0.6,1.2-2.1,2.2-3.5,1.9c-0.5-0.1-0.9-0.4-1.2-0.7c-0.4-0.4-0.7-1.1-0.7-1.6c0-0.3,0.2-0.7,0.4-0.9
		c0,0.6,0.4,1.1,1,1.3c0.8,0.3,1.6-0.1,1.9-0.9c0.3-0.8-0.1-1.6-0.9-1.9c-0.3-0.1-0.6-0.1-0.8,0c-1.2,0.1-2.3,1.4-2.3,2.6
		c0,0.8,0.6,1.7,1.2,2.3c0.6,0.5,1.3,0.8,2,0.8c1.5,0,2.9-0.9,3.6-2.2c0.5-0.9,0.8-1.9,1.1-2.9c0.3,0,0.6,0,0.9,0
		C27.6,39,29,38,29.3,36.4z M26.6,26.9c0-1.2,0.1-2.4,0.4-3.6c0.2-0.9,0.6-1.9,1.3-2.5c0.3-0.3,0.6-0.3,0.8,0
		c0.4,0.4,0.4,1.1,0.4,1.6c-0.1,1.4-0.7,2.6-1.6,3.6c-0.4,0.4-0.8,0.8-1.3,1.3C26.6,27.1,26.6,27,26.6,26.9z M21.6,36.4
		c-1.2-2.1,1.1-4.5,2.5-5.8c0.6-0.6,1.2-1.1,1.8-1.7c0,0.3,0,0.5,0,0.8c-0.1,0.7-0.1,1.4-0.2,2.1c0,0-0.1,0-0.1,0
		c-1,0.1-1.7,0.8-2.1,1.7c-0.4,0.8-0.3,1.8,0.7,2.1c0.5,0.1,0.7-0.6,0.3-0.7c-0.6-0.2-0.3-0.9-0.1-1.2c0.3-0.6,0.7-0.9,1.3-1
		c-0.2,1.7-0.5,3.4-0.9,5.1c-0.1,0.2-0.1,0.4-0.2,0.7C23.4,38.1,22.2,37.4,21.6,36.4z M25.4,38.5C25.3,38.5,25.3,38.5,25.4,38.5
		c-0.1-0.1,0-0.2,0-0.2c0.4-1.8,0.7-3.7,1-5.6c0.6,0.1,1.1,0.4,1.5,0.8c0.6,0.6,0.9,1.5,0.8,2.4C28.5,37.5,26.9,38.5,25.4,38.5z"/>
</g>
</svg>
