<?xml version="1.0" encoding="utf-8"?>
<!-- Generator: Adobe Illustrator 26.0.2, SVG Export Plug-In . SVG Version: 6.00 Build 0)  -->
<svg version="1.1" xmlns="http://www.w3.org/2000/svg" xmlns:xlink="http://www.w3.org/1999/xlink" x="0px" y="0px"
	 viewBox="0 0 75.6 75.6" style="enable-background:new 0 0 75.6 75.6;" xml:space="preserve">
<style type="text/css">
	.st0{fill:none;stroke:#FFFFFF;stroke-width:2;stroke-miterlimit:10;}
	.st1{fill:#FFFFFF;}
</style>
<g id="circle">
	<circle class="st0" cx="37.8" cy="37.8" r="36.8"/>
</g>
<g id="black">
	<path d="M63.4,49.8C56.8,64,39.9,70.1,25.8,63.4C11.6,56.8,5.5,39.9,12.2,25.8c6.7-14.2,23.5-20.2,37.7-13.6
		C64,18.8,70.1,35.7,63.4,49.8z"/>
</g>
<g id="white">
	<path class="st1" d="M36.3,48.3l-4.1,16.2c-2-0.4-4-1.1-6-2c-1.9-0.9-3.7-2-5.3-3.3l9.9-13.5c0.8,0.7,1.6,1.3,2.6,1.7
		C34.2,47.9,35.3,48.2,36.3,48.3z M44.9,29.9l9.9-13.5c-1.6-1.3-3.4-2.4-5.3-3.3c-1.9-0.9-3.9-1.6-6-2l-4.1,16.2c1,0.1,2,0.4,3,0.9
		C43.3,28.6,44.2,29.2,44.9,29.9z"/>
	<path class="st1" d="M46.5,41.9c-2.3,4.8-8,6.9-12.9,4.6c-4.8-2.3-6.9-8-4.6-12.9c2.3-4.8,8-6.9,12.9-4.6
		C46.7,31.3,48.8,37.1,46.5,41.9z"/>
</g>
<g id="black-center">
	<path d="M39.3,38.5c-0.4,0.8-1.4,1.2-2.2,0.8c-0.8-0.4-1.2-1.4-0.8-2.2c0.4-0.8,1.4-1.2,2.2-0.8C39.3,36.7,39.7,37.7,39.3,38.5z"/>
</g>
</svg>
