<svg xmlns="http://www.w3.org/2000/svg" width="75.6" height="75.6" viewBox="0 0 75.6 75.6">
  <defs>
    <style>
      .cls-1 {
        fill: none;
        stroke: #fff;
        stroke-miterlimit: 10;
        stroke-width: 2px;
      }
    </style>
  </defs>
  <g id="Layer_2" data-name="Layer 2">
    <g id="circle">
      <circle class="cls-1" cx="37.8" cy="37.8" r="36.8"/>
    </g>
    <g id="music5">
      <path d="M63.61,16h-.5a6.2,6.2,0,0,0-2,.3,15.33,15.33,0,0,0-1.7,2.39,11.76,11.76,0,0,0-4.4-1.54c-3.58-.61-8.07,1.6-11.38,0-2.3-1.11-4.17-7.21-8.54-8A39.87,39.87,0,0,0,30,8.92h-.74a1.23,1.23,0,0,1,.06-.34,2.13,2.13,0,0,1,.78-1.21h0a1.83,1.83,0,0,0-1.35-1.07h-.1a.56.56,0,0,0-.56-.54.55.55,0,0,0-.55.54h-.1a1.83,1.83,0,0,0-1.35,1.07h0a2.13,2.13,0,0,1,.78,1.21,21.32,21.32,0,0,1,.19,3.06H27a.41.41,0,0,0-.16,0h0a.2.2,0,0,0-.08,0,.47.47,0,0,0-.24.35.13.13,0,0,0,0,.06.06.06,0,0,0,0,0v.35a.54.54,0,0,0,.53.54h.09V56.17h-.25l-.09,0-.05,0s0,0-.05,0l-.08.06-.06.08a.41.41,0,0,0-.08.19.13.13,0,0,0,0,.06v.49a.52.52,0,0,0,.52.53h.15v2.64H27l-2.29,2.92v5.25h-.84v1.36H43.47V68.48h-.74V63.23l-2.34-2.92H40.1L63.68,17.52S64.51,16.31,63.61,16ZM30.29,60.31H29.1V57.67h.12a.53.53,0,0,0,.53-.53v-.45a.06.06,0,0,0,0,0,.13.13,0,0,0,0-.06.4.4,0,0,0-.07-.19.27.27,0,0,0-.07-.08l-.08-.06s0,0,0,0l0,0-.1,0H29.1V13.06h.09a.54.54,0,0,0,.53-.54v-.35a.06.06,0,0,0,0,0,.13.13,0,0,0,0-.06.46.46,0,0,0-.23-.34l-.09-.05h0a.41.41,0,0,0-.16,0h-.11c0-.26,0-.59,0-.93h0l.32,0,.53-.09.33,0Zm1.7,0H30.71V10.48c.4,0,.83-.06,1.28-.05Zm1.72,0H32.42V10.44a9.56,9.56,0,0,1,1.29.13Zm1.7-2.62-1.29,2.13V10.65a7.67,7.67,0,0,1,1.15.36l.14.07Zm1.71-2.82c-.47.77-.9,1.48-1.29,2.14V11.3a6.33,6.33,0,0,1,1.29,1.17Zm1.7-2.8c-.45.74-.88,1.44-1.28,2.11V13c.44.57.86,1.21,1.28,1.86Zm1.71-2.81-1.28,2.11V15.52c.41.65.84,1.29,1.28,1.88Zm1.7-2.8c-.43.72-.86,1.42-1.28,2.11V17.93a7.45,7.45,0,0,0,1.28,1.24ZM44,43.66l-1.29,2.11V19.43a3,3,0,0,0,.75.31l.54.13Zm1.7-2.79L44.36,43v-23a9.11,9.11,0,0,0,1.29.09Zm1.71-2.79c-.43.7-.86,1.41-1.29,2.1V20L47.36,20Zm1.7-2.78-1.29,2.1V19.94c.43,0,.86-.08,1.29-.13Zm1.71-2.78-1.28,2.1V19.77l1.28-.14Zm1.7-2.76c-.41.68-.84,1.37-1.28,2.08V19.58l1.28-.09ZM54.19,27,52.9,29.08v-9.6a7.55,7.55,0,0,1,1.29.07Zm1.91-3.06-1.5,2.4v-6.7c.55.13,1,.28,1.5.43Zm.42-.68v-3a16.16,16.16,0,0,1,1.51.66Z"/>
    </g>
  </g>
</svg>
