<svg id="music" xmlns="http://www.w3.org/2000/svg" width="75.6" height="75.6" viewBox="0 0 75.6 75.6">
  <defs>
    <style>
      .cls-1 {
        fill: none;
        stroke: #fff;
        stroke-miterlimit: 10;
        stroke-width: 2px;
      }
    </style>
  </defs>
  <g id="Layer_2" data-name="Layer 2">
    <g id="circle">
      <circle class="cls-1" cx="37.8" cy="37.8" r="36.8"/>
    </g>
    <g id="music8">
      <path d="M37.2,32l.14.11h0l-1.1.31s0,0,0,0l-.09,0h0l-.35-.21s-.27-.55.38-1.34c.8-1,1.26-.55,1.26-.55l.25.25,0,1.19-.15-.13Zm34.1-3-.45.8-6.52-5.43-.12.15a.52.52,0,0,1-.73.07.5.5,0,0,1-.18-.39.51.51,0,0,1,.11-.31c-1-.93-4.17-3.79-6.39-4.51-2.66-.88-12.46,13.91-18.31,21S26.1,56.8,21.2,59.38s-10.54-1.24-11.43-5.7C8.83,49,13.69,39.52,13.33,38.43c-.74-2.17-2.53-.15-3.91-.81s-.91-4.73,4.37-10.84,7.43-6.29,8.72-4.93c1.1,1.15-.79,2.92.88,5.86,1,1.81,2.52,4.37-.55,8.82s-5,10-1.85,12.45,6.33-2.12,8.47-4.7c.85-1,4.71-5.74,9.24-11.05L37.34,32.1l.27-.3L39,32.92c.78-.92,1.58-1.85,2.4-2.78L40,29l0,0-1.2.34h0l-.35-.21s-.27-.56.39-1.34c.8-1,1.25-.55,1.25-.55l.25.25,0,1.19,1.34,1.11L44,27.11l-1.25-1h0s-1,.29-1.2.35h0l-.29-.17-.06,0s-.27-.56.39-1.35c.8-1,1.25-.54,1.25-.54h0l.24.24,0,1.2,1.23,1c.75-.85,1.48-1.67,2.21-2.47l-1.29-1.08v0s-1,.28-1.21.35h0l-.34-.21s-.27-.57.38-1.35c.8-1,1.25-.55,1.25-.55h0l.25.24,0,1.18h0L46.76,24c4.11-4.54,7.63-8.07,8.73-8.22,2.64-.38,8.29,4.79,9.6,6l.1-.14a.51.51,0,0,1,.9.34.5.5,0,0,1-.11.32l-.15.18h0l0,0,.36.32L67.43,24a2.62,2.62,0,0,0,.31,1.76C68.24,26.4,71.3,29,71.3,29ZM47.9,25.53l0,0-.05.11Zm0,0-.05.11.07-.08ZM37.46,31.67,37.2,32l.14.11.27-.3h0Zm0,0L37.2,32l.14.11.27-.3h0Zm28.36-9.14h0l0,0v0Zm-17.94,3-.05.11.07-.08Zm17.95-3h0l0,0,.36.32h0Z"/>
    </g>
  </g>
</svg>
